<?xml version="1.0" standalone="no"?>
<!DOCTYPE svg PUBLIC "-//W3C//DTD SVG 20010904//EN"
 "http://www.w3.org/TR/2001/REC-SVG-20010904/DTD/svg10.dtd">
<svg version="1.0" xmlns="http://www.w3.org/2000/svg"
 width="1024.000000pt" height="1024.000000pt" viewBox="0 0 1024.000000 1024.000000"
 preserveAspectRatio="xMidYMid meet">

<g transform="translate(0.000000,1024.000000) scale(0.100000,-0.100000)"
fill="#000000" stroke="none">
<path d="M4960 9180 c7 -14 9 -22 5 -17 -12 10 -56 -33 -48 -47 3 -6 0 -5 -8
2 -7 6 -18 12 -23 12 -6 0 -5 -4 3 -9 10 -7 11 -13 2 -30 -7 -11 -17 -21 -24
-21 -8 0 -12 -15 -12 -40 0 -29 -3 -39 -12 -36 -7 3 -14 -2 -14 -12 -1 -9 -3
-29 -5 -44 -1 -16 2 -28 7 -28 6 0 7 -4 4 -10 -6 -10 22 -3 40 11 6 4 17 4 25
-1 21 -14 62 -12 82 4 10 7 15 15 13 18 -3 3 9 5 27 5 25 -1 32 3 30 15 -1 9
7 18 19 21 12 3 18 10 14 16 -3 6 -1 11 4 11 6 0 11 -4 11 -9 0 -5 8 -8 18 -6
9 2 21 4 26 4 4 1 5 9 2 18 -4 10 -4 14 0 10 4 -4 15 0 25 9 17 16 18 15 15
-14 -4 -25 -1 -29 15 -25 12 3 19 13 18 27 -1 17 -2 17 -6 4 -2 -10 -9 -18
-13 -18 -11 0 -1 60 13 78 6 8 5 17 -3 27 -7 8 -9 15 -5 15 4 0 13 -7 20 -16
10 -14 13 -14 17 -3 3 8 -2 25 -12 37 -15 18 -19 19 -24 7 -3 -8 -10 -15 -17
-15 -6 0 -9 6 -6 14 3 8 -1 17 -9 20 -9 3 -12 2 -8 -5 3 -6 -3 -5 -15 3 -12 7
-17 14 -11 16 5 2 10 8 10 13 0 5 -10 5 -24 -1 -16 -6 -28 -5 -36 3 -10 9 -11
9 -5 -2 6 -10 4 -12 -5 -6 -12 8 -61 11 -75 5 -15 -7 -32 -5 -44 4 -12 9 -12
7 -1 -14z m140 -44 c0 -3 -4 -8 -10 -11 -5 -3 -10 -1 -10 4 0 6 5 11 10 11 6
0 10 -2 10 -4z m-227 -197 c4 -3 2 -11 -5 -17 -10 -8 -13 -5 -14 15 -1 13 1
21 5 16 3 -4 10 -10 14 -14z"/>
<path d="M5140 8966 c0 -13 -4 -15 -17 -7 -12 6 -21 5 -31 -7 -7 -10 -11 -11
-7 -4 3 7 0 12 -8 12 -7 0 -14 -7 -14 -15 0 -18 29 -18 76 -1 29 10 31 13 17
25 -14 11 -16 11 -16 -3z"/>
<path d="M5013 8915 c0 -8 4 -12 9 -9 4 3 8 9 8 15 0 5 -4 9 -8 9 -5 0 -9 -7
-9 -15z"/>
<path d="M1456 5600 c-20 -21 -33 -27 -41 -20 -7 5 -15 7 -18 3 -4 -3 -7 -1
-7 7 0 10 -3 10 -15 0 -12 -10 -18 -10 -32 1 -9 8 -14 9 -10 2 5 -7 -10 -15
-43 -23 -28 -7 -53 -16 -56 -21 -3 -5 -10 -7 -15 -4 -5 4 -9 -1 -9 -9 0 -19
-27 -35 -50 -29 -11 3 -19 -3 -23 -16 -3 -14 -10 -19 -20 -15 -16 6 -53 -28
-63 -58 -3 -10 -12 -18 -21 -18 -10 0 -13 -6 -9 -17 4 -10 4 -14 0 -10 -9 9
-60 -74 -56 -92 2 -7 -1 -10 -6 -7 -6 3 -12 -1 -16 -9 -3 -8 0 -15 7 -15 9 0
9 -2 0 -8 -7 -4 -12 -16 -12 -27 0 -11 -2 -32 -5 -47 -2 -16 0 -28 5 -28 5 0
9 -11 9 -25 0 -15 7 -39 15 -55 14 -27 14 -29 -2 -24 -12 4 -9 -3 9 -19 17
-16 23 -27 15 -30 -8 -2 -7 -8 4 -20 9 -9 19 -13 23 -10 3 4 6 0 6 -9 0 -17
51 -64 65 -60 5 2 15 -5 22 -14 7 -10 13 -13 13 -6 0 6 7 9 16 5 8 -3 13 -12
10 -19 -3 -8 0 -11 9 -8 7 3 23 1 34 -5 16 -9 29 -8 56 3 20 9 33 11 30 6 -8
-12 5 -13 24 -1 9 6 10 11 2 15 -16 10 -14 26 4 26 11 0 15 11 15 36 0 25 4
35 13 31 7 -3 13 3 13 13 0 10 -5 16 -11 13 -7 -2 -12 3 -12 12 0 8 6 15 14
15 7 0 13 8 13 18 0 9 -4 13 -8 7 -4 -5 -13 -11 -21 -13 -7 -1 1 14 18 35 20
24 27 39 19 44 -6 4 -8 16 -5 27 2 12 0 23 -7 25 -8 3 -7 9 3 18 9 9 11 9 7 2
-4 -7 -2 -13 3 -13 11 0 15 13 12 37 -1 11 23 30 42 32 4 1 6 4 5 9 -2 4 -6 6
-10 5 -18 -6 -6 17 20 37 18 14 20 18 5 11 -18 -9 -20 -8 -16 9 3 11 14 22 24
25 20 7 26 25 8 25 -6 0 -1 8 12 19 13 10 30 16 39 13 12 -5 11 -2 -2 12 -22
22 -23 27 -1 19 11 -4 14 -3 9 6 -9 14 23 42 39 34 5 -3 3 2 -6 12 -16 16 -15
19 18 50 22 21 32 38 28 46 -5 7 -4 10 3 5 6 -3 13 -2 16 3 4 6 -6 8 -23 6
-28 -4 -30 -3 -21 21 13 33 13 34 -5 28 -8 -3 -14 -9 -13 -12 2 -20 -4 -23
-18 -11 -12 10 -17 10 -23 0 -6 -10 -10 -9 -14 3 -3 8 -1 17 6 20 7 2 8 5 2 5
-5 0 -23 -13 -39 -29z m-368 -697 c-13 -16 -15 -16 -21 1 -4 10 0 14 13 13 14
-1 16 -4 8 -14z m192 -18 c0 -8 -4 -15 -8 -15 -5 0 -9 7 -9 15 0 8 4 15 9 15
4 0 8 -7 8 -15z m-65 -35 c3 -5 1 -10 -4 -10 -6 0 -11 5 -11 10 0 6 2 10 4 10
3 0 8 -4 11 -10z"/>
<path d="M856 1824 c-11 -7 -18 -16 -15 -18 2 -2 13 2 23 10 11 7 18 16 15 18
-2 2 -13 -2 -23 -10z"/>
<path d="M855 1780 c3 -5 0 -10 -7 -10 -10 0 -9 -3 2 -10 18 -11 10 -21 -19
-23 -20 -1 -21 -3 -5 -14 13 -10 14 -17 6 -42 -6 -18 -7 -33 -2 -36 5 -3 6
-13 3 -22 -4 -10 -2 -14 4 -10 6 4 14 0 17 -9 9 -22 -3 -32 -15 -14 -8 12 -9
11 -7 -5 2 -11 10 -25 18 -32 12 -10 13 -12 1 -13 -22 0 -4 -12 23 -15 17 -2
23 1 21 13 -1 10 -9 16 -16 14 -8 -2 -6 5 6 18 16 18 16 20 2 14 -12 -4 -17
-1 -17 11 0 9 5 13 10 10 13 -8 13 14 -1 53 -6 19 -16 30 -22 26 -7 -3 -3 2 8
11 14 11 16 18 8 23 -7 5 -9 13 -4 21 10 16 3 51 -11 51 -5 0 -6 -4 -3 -10z
m30 -240 c-3 -5 -12 -10 -18 -10 -7 0 -6 4 3 10 19 12 23 12 15 0z"/>
<path d="M851 1492 c7 -9 14 -18 15 -20 0 -1 8 6 17 15 14 17 13 18 -15 20
-27 2 -29 1 -17 -15z"/>
<path d="M5393 1398 c1 -7 -4 -12 -10 -10 -7 1 -13 -3 -13 -9 0 -7 -14 -10
-35 -7 -25 3 -35 0 -37 -12 -2 -8 -10 -15 -18 -16 -55 -4 -56 -4 -40 -15 13
-9 13 -10 -2 -6 -9 3 -38 -3 -65 -13 -26 -10 -59 -20 -73 -21 -14 -2 -33 -12
-44 -21 -10 -9 -25 -14 -32 -11 -12 4 -11 8 3 20 17 13 16 13 -3 4 -12 -6 -24
-8 -27 -5 -3 3 -3 -3 0 -14 2 -11 -1 -23 -8 -27 -7 -5 -10 -4 -6 2 3 5 0 10
-8 10 -8 0 -11 -5 -8 -10 3 -6 0 -15 -8 -21 -21 -16 -50 -80 -38 -85 6 -1 2
-9 -8 -17 -17 -13 -17 -14 0 -8 12 4 17 1 17 -11 0 -9 5 -13 10 -10 6 3 10 0
10 -8 0 -8 7 -20 15 -27 8 -7 13 -15 11 -19 -5 -8 15 -25 34 -29 8 -2 23 -11
32 -19 10 -8 24 -13 33 -10 8 4 15 2 15 -2 0 -15 58 -31 64 -18 3 9 5 9 5 0 1
-8 14 -7 47 3 26 7 51 11 57 7 6 -3 7 -1 3 5 -6 11 28 18 58 13 5 -1 6 5 3 14
-4 10 0 15 12 15 10 0 24 12 32 28 16 31 51 85 60 92 4 3 18 26 32 51 26 49
31 106 9 101 -9 -2 -10 2 -1 17 15 23 4 55 -16 47 -8 -3 -15 -1 -15 3 0 16 31
21 36 6 4 -8 10 -12 15 -9 17 10 9 22 -21 29 -18 4 -27 11 -24 17 5 7 0 9 -14
6 -12 -4 -22 -2 -22 3 0 5 -4 9 -10 9 -5 0 -9 -6 -7 -12z m-413 -228 c0 -5 -5
-10 -11 -10 -5 0 -7 5 -4 10 3 6 8 10 11 10 2 0 4 -4 4 -10z"/>
<path d="M5427 1113 c-10 -9 -9 -23 1 -23 5 0 9 7 9 15 0 17 -1 18 -10 8z"/>
</g>
</svg>
